<mxfile host="app.diagrams.net" modified="2023-10-06T14:10:16.041Z" agent="Mozilla/5.0 (Windows NT 10.0; Win64; x64) AppleWebKit/537.36 (KHTML, like Gecko) Chrome/117.0.0.0 Safari/537.36" etag="bacIIu-Amivm9LgWE7Vy" version="21.7.5" type="github">
  <diagram id="R2lEEEUBdFMjLlhIrx00" name="Page-1">
    <mxGraphModel dx="1736" dy="586" grid="0" gridSize="10" guides="1" tooltips="1" connect="1" arrows="1" fold="1" page="0" pageScale="1" pageWidth="850" pageHeight="1100" math="0" shadow="0" extFonts="Permanent Marker^https://fonts.googleapis.com/css?family=Permanent+Marker">
      <root>
        <mxCell id="0" />
        <mxCell id="1" parent="0" />
        <mxCell id="lbiJdHwen5PBFrmT2Bng-1" value="仓库号" style="ellipse;whiteSpace=wrap;html=1;align=center;" vertex="1" parent="1">
          <mxGeometry x="-52" y="206" width="100" height="40" as="geometry" />
        </mxCell>
        <mxCell id="lbiJdHwen5PBFrmT2Bng-4" style="rounded=0;orthogonalLoop=1;jettySize=auto;html=1;endArrow=none;endFill=0;" edge="1" parent="1" source="lbiJdHwen5PBFrmT2Bng-2" target="lbiJdHwen5PBFrmT2Bng-1">
          <mxGeometry relative="1" as="geometry" />
        </mxCell>
        <mxCell id="lbiJdHwen5PBFrmT2Bng-6" style="rounded=0;orthogonalLoop=1;jettySize=auto;html=1;endArrow=none;endFill=0;" edge="1" parent="1" source="lbiJdHwen5PBFrmT2Bng-2" target="lbiJdHwen5PBFrmT2Bng-3">
          <mxGeometry relative="1" as="geometry" />
        </mxCell>
        <mxCell id="lbiJdHwen5PBFrmT2Bng-30" style="edgeStyle=orthogonalEdgeStyle;rounded=0;orthogonalLoop=1;jettySize=auto;html=1;endArrow=none;endFill=0;" edge="1" parent="1" source="lbiJdHwen5PBFrmT2Bng-2" target="lbiJdHwen5PBFrmT2Bng-29">
          <mxGeometry relative="1" as="geometry">
            <mxPoint x="163" y="316" as="targetPoint" />
          </mxGeometry>
        </mxCell>
        <mxCell id="lbiJdHwen5PBFrmT2Bng-2" value="仓库" style="whiteSpace=wrap;html=1;align=center;" vertex="1" parent="1">
          <mxGeometry x="4" y="294" width="100" height="40" as="geometry" />
        </mxCell>
        <mxCell id="lbiJdHwen5PBFrmT2Bng-3" value="面积" style="ellipse;whiteSpace=wrap;html=1;align=center;" vertex="1" parent="1">
          <mxGeometry x="81" y="206" width="100" height="40" as="geometry" />
        </mxCell>
        <mxCell id="lbiJdHwen5PBFrmT2Bng-7" value="货号" style="ellipse;whiteSpace=wrap;html=1;align=center;" vertex="1" parent="1">
          <mxGeometry x="345" y="206" width="100" height="40" as="geometry" />
        </mxCell>
        <mxCell id="lbiJdHwen5PBFrmT2Bng-8" style="rounded=0;orthogonalLoop=1;jettySize=auto;html=1;endArrow=none;endFill=0;" edge="1" parent="1" source="lbiJdHwen5PBFrmT2Bng-10" target="lbiJdHwen5PBFrmT2Bng-7">
          <mxGeometry relative="1" as="geometry" />
        </mxCell>
        <mxCell id="lbiJdHwen5PBFrmT2Bng-9" style="rounded=0;orthogonalLoop=1;jettySize=auto;html=1;endArrow=none;endFill=0;" edge="1" parent="1" source="lbiJdHwen5PBFrmT2Bng-10" target="lbiJdHwen5PBFrmT2Bng-11">
          <mxGeometry relative="1" as="geometry" />
        </mxCell>
        <mxCell id="lbiJdHwen5PBFrmT2Bng-10" value="货物" style="whiteSpace=wrap;html=1;align=center;" vertex="1" parent="1">
          <mxGeometry x="411.5" y="294" width="100" height="40" as="geometry" />
        </mxCell>
        <mxCell id="lbiJdHwen5PBFrmT2Bng-11" value="名称" style="ellipse;whiteSpace=wrap;html=1;align=center;" vertex="1" parent="1">
          <mxGeometry x="478" y="206" width="100" height="40" as="geometry" />
        </mxCell>
        <mxCell id="lbiJdHwen5PBFrmT2Bng-31" style="edgeStyle=orthogonalEdgeStyle;rounded=0;orthogonalLoop=1;jettySize=auto;html=1;entryX=0;entryY=0.5;entryDx=0;entryDy=0;endArrow=none;endFill=0;" edge="1" parent="1" source="lbiJdHwen5PBFrmT2Bng-29" target="lbiJdHwen5PBFrmT2Bng-10">
          <mxGeometry relative="1" as="geometry" />
        </mxCell>
        <mxCell id="lbiJdHwen5PBFrmT2Bng-29" value="存货" style="shape=rhombus;perimeter=rhombusPerimeter;whiteSpace=wrap;html=1;align=center;" vertex="1" parent="1">
          <mxGeometry x="196" y="284" width="120" height="60" as="geometry" />
        </mxCell>
        <mxCell id="lbiJdHwen5PBFrmT2Bng-33" style="edgeStyle=orthogonalEdgeStyle;rounded=0;orthogonalLoop=1;jettySize=auto;html=1;endArrow=none;endFill=0;" edge="1" parent="1" source="lbiJdHwen5PBFrmT2Bng-32" target="lbiJdHwen5PBFrmT2Bng-2">
          <mxGeometry relative="1" as="geometry" />
        </mxCell>
        <mxCell id="lbiJdHwen5PBFrmT2Bng-32" value="工作" style="shape=rhombus;perimeter=rhombusPerimeter;whiteSpace=wrap;html=1;align=center;" vertex="1" parent="1">
          <mxGeometry x="-233" y="284" width="120" height="60" as="geometry" />
        </mxCell>
        <mxCell id="lbiJdHwen5PBFrmT2Bng-34" value="职工号" style="ellipse;whiteSpace=wrap;html=1;align=center;" vertex="1" parent="1">
          <mxGeometry x="-595" y="228" width="100" height="40" as="geometry" />
        </mxCell>
        <mxCell id="lbiJdHwen5PBFrmT2Bng-35" style="rounded=0;orthogonalLoop=1;jettySize=auto;html=1;endArrow=none;endFill=0;" edge="1" parent="1" source="lbiJdHwen5PBFrmT2Bng-39" target="lbiJdHwen5PBFrmT2Bng-34">
          <mxGeometry relative="1" as="geometry" />
        </mxCell>
        <mxCell id="lbiJdHwen5PBFrmT2Bng-36" style="rounded=0;orthogonalLoop=1;jettySize=auto;html=1;endArrow=none;endFill=0;" edge="1" parent="1" source="lbiJdHwen5PBFrmT2Bng-39" target="lbiJdHwen5PBFrmT2Bng-40">
          <mxGeometry relative="1" as="geometry" />
        </mxCell>
        <mxCell id="lbiJdHwen5PBFrmT2Bng-37" style="rounded=0;orthogonalLoop=1;jettySize=auto;html=1;entryX=0.434;entryY=0.997;entryDx=0;entryDy=0;entryPerimeter=0;endArrow=none;endFill=0;" edge="1" parent="1" source="lbiJdHwen5PBFrmT2Bng-39" target="lbiJdHwen5PBFrmT2Bng-41">
          <mxGeometry relative="1" as="geometry" />
        </mxCell>
        <mxCell id="lbiJdHwen5PBFrmT2Bng-38" style="rounded=0;orthogonalLoop=1;jettySize=auto;html=1;entryX=0.5;entryY=1;entryDx=0;entryDy=0;endArrow=none;endFill=0;" edge="1" parent="1" source="lbiJdHwen5PBFrmT2Bng-39" target="lbiJdHwen5PBFrmT2Bng-42">
          <mxGeometry relative="1" as="geometry">
            <mxPoint x="-154" y="255" as="targetPoint" />
          </mxGeometry>
        </mxCell>
        <mxCell id="lbiJdHwen5PBFrmT2Bng-43" style="edgeStyle=orthogonalEdgeStyle;rounded=0;orthogonalLoop=1;jettySize=auto;html=1;entryX=0;entryY=0.5;entryDx=0;entryDy=0;endArrow=none;endFill=0;" edge="1" parent="1" source="lbiJdHwen5PBFrmT2Bng-39" target="lbiJdHwen5PBFrmT2Bng-32">
          <mxGeometry relative="1" as="geometry" />
        </mxCell>
        <mxCell id="lbiJdHwen5PBFrmT2Bng-39" value="职工" style="whiteSpace=wrap;html=1;align=center;" vertex="1" parent="1">
          <mxGeometry x="-459" y="294" width="100" height="40" as="geometry" />
        </mxCell>
        <mxCell id="lbiJdHwen5PBFrmT2Bng-40" value="姓名" style="ellipse;whiteSpace=wrap;html=1;align=center;" vertex="1" parent="1">
          <mxGeometry x="-506" y="194" width="100" height="40" as="geometry" />
        </mxCell>
        <mxCell id="lbiJdHwen5PBFrmT2Bng-41" value="年龄" style="ellipse;whiteSpace=wrap;html=1;align=center;" vertex="1" parent="1">
          <mxGeometry x="-390" y="194" width="100" height="40" as="geometry" />
        </mxCell>
        <mxCell id="lbiJdHwen5PBFrmT2Bng-42" value="职称" style="ellipse;whiteSpace=wrap;html=1;align=center;" vertex="1" parent="1">
          <mxGeometry x="-298" y="223" width="100" height="40" as="geometry" />
        </mxCell>
        <mxCell id="lbiJdHwen5PBFrmT2Bng-44" value="1" style="text;html=1;align=center;verticalAlign=middle;resizable=0;points=[];autosize=1;strokeColor=none;fillColor=none;" vertex="1" parent="1">
          <mxGeometry x="-79" y="291" width="25" height="26" as="geometry" />
        </mxCell>
        <mxCell id="lbiJdHwen5PBFrmT2Bng-45" value="n" style="text;html=1;align=center;verticalAlign=middle;resizable=0;points=[];autosize=1;strokeColor=none;fillColor=none;" vertex="1" parent="1">
          <mxGeometry x="-306" y="291" width="25" height="26" as="geometry" />
        </mxCell>
        <mxCell id="lbiJdHwen5PBFrmT2Bng-46" value="n" style="text;html=1;align=center;verticalAlign=middle;resizable=0;points=[];autosize=1;strokeColor=none;fillColor=none;" vertex="1" parent="1">
          <mxGeometry x="138" y="288" width="25" height="26" as="geometry" />
        </mxCell>
        <mxCell id="lbiJdHwen5PBFrmT2Bng-47" value="m" style="text;html=1;align=center;verticalAlign=middle;resizable=0;points=[];autosize=1;strokeColor=none;fillColor=none;" vertex="1" parent="1">
          <mxGeometry x="342" y="288" width="28" height="26" as="geometry" />
        </mxCell>
      </root>
    </mxGraphModel>
  </diagram>
</mxfile>
